<svg xmlns="http://www.w3.org/2000/svg" width="215" height="33" viewBox="0 0 215 33">
    <defs>
        <linearGradient id="hsd2b1x84b" x1="50%" x2="50%" y1="-135.013%" y2="100%">
            <stop offset="0%" stop-color="#545228"/>
            <stop offset="100%" stop-color="#706D32"/>
        </linearGradient>
        <linearGradient id="fdxpn6bidc" x1="50%" x2="50%" y1="-136.942%" y2="100%">
            <stop offset=".814%" stop-color="#545228"/>
            <stop offset="100%" stop-color="#706D32"/>
        </linearGradient>
        <linearGradient id="fjgm2u6f3d" x1="50%" x2="50%" y1="-136.942%" y2="100%">
            <stop offset=".814%" stop-color="#545228"/>
            <stop offset="100%" stop-color="#706D32"/>
        </linearGradient>
        <linearGradient id="3ytsst7nue" x1="50%" x2="50%" y1="-136.942%" y2="100%">
            <stop offset="0%" stop-color="#67652E"/>
            <stop offset="100%" stop-color="#706D32"/>
        </linearGradient>
        <linearGradient id="y8qru5ahnf" x1="50%" x2="50%" y1="-136.942%" y2="100%">
            <stop offset=".814%" stop-color="#545228"/>
            <stop offset="100%" stop-color="#706D32"/>
        </linearGradient>
        <filter id="mn604o9zya">
            <feColorMatrix in="SourceGraphic" values="0 0 0 0 0.438286 0 0 0 0 0.402709 0 0 0 0 0.221855 0 0 0 1.000000 0"/>
        </filter>
    </defs>
    <g fill="none" fill-rule="evenodd">
        <g>
            <g filter="url(#mn604o9zya)" transform="translate(-141 -4486) translate(137 4486)">
                <g>
                    <path fill="#FFF" d="M43.986 14.763L47.842 14.763 41.232 33 37.325 33 39.003 28.001 33.915 14.763 38.111 14.763 40.996 23.895 41.048 23.895 43.986 14.763" transform="translate(4)"/>
                    <path fill="url(#hsd2b1x84b)" d="M100.016 19.273l.075 2.488h.05c.8-2.16 2.403-2.707 4.28-2.652v3.637h-1.628c-.625.056-1.45.437-1.827 1.012-.4.766-.475 1.532-.5 2.434V33h-3.729V22.008c0-.574-.1-1.723-.15-2.735h3.429" transform="translate(4)"/>
                    <path fill="url(#fdxpn6bidc)" d="M116.072 22.997c-.049-.888-.858-1.28-1.717-1.28-1.036 0-1.515.314-1.515 1.177 0 2.062 7.249.887 7.249 5.797 0 2.873-3.386 4.309-5.734 4.309-2.955 0-5.532-1.201-5.582-4.204h3.51c.075 1.018.96 1.593 2.072 1.593 1.036 0 1.819-.444 1.819-1.463 0-1.044-1.819-1.489-2.577-1.67-2.425-.603-4.672-1.15-4.672-4.207 0-2.741 3.207-3.944 5.43-3.944 2.678 0 4.95.993 5.127 3.892h-3.41" transform="translate(4)"/>
                    <path fill="url(#fjgm2u6f3d)" d="M131.854 24.486c0-1.437-.377-2.77-2.215-2.77-1.737 0-2.115 1.333-2.166 2.77h4.38zm-4.38 2.611c0 1.7.226 3.292 2.165 3.292 1.309 0 1.964-.496 2.316-1.698h3.399c-.328 3.239-2.77 4.309-5.715 4.309-4.33 0-6.069-2.533-6.069-6.92 0-3.945 2.217-6.975 6.069-6.975 2.366 0 4.33.837 5.387 3.135.353.732.53 1.515.63 2.35.1.81.1 1.645.1 2.507h-8.283z" transform="translate(4)"/>
                    <path fill="url(#fdxpn6bidc)" d="M140.109 33L140.109 30.233 147.355 21.873 140.293 21.873 140.293 19.105 151.161 19.105 151.161 21.873 143.916 30.233 151.425 30.233 151.425 33 140.109 33" transform="translate(4)"/>
                    <path fill="#FFF" d="M169.43 24.094c-.025-1.07-.455-2.377-1.927-2.377-1.624 0-1.65 3.133-1.7 4.154.101 1.2.127 4.517 1.75 4.517 1.471 0 1.903-1.489 1.929-2.56h3.704c-.127 3.344-2.132 5.172-5.632 5.172-3.78 0-5.684-3.474-5.684-6.948 0-3.472 1.904-6.947 5.684-6.947 3.247 0 5.657 1.907 5.632 4.989h-3.755M183.196 30.388c2.292 0 2.666-2.246 2.666-4.336 0-2.088-.374-4.335-2.666-4.335-2.293 0-2.666 2.247-2.666 4.335 0 2.09.373 4.336 2.666 4.336zm0 2.612c-4.087 0-6.528-2.82-6.528-6.948 0-4.126 2.441-6.947 6.528-6.947 4.085 0 6.528 2.821 6.528 6.947 0 4.127-2.443 6.948-6.528 6.948zM197.92 21.094h.051c.8-1.181 2.012-1.989 3.971-1.989 1.445 0 3.586 1.076 4.128 2.553 1.212-1.745 2.424-2.553 4.384-2.553 1.444 0 3.585 1.076 4.127 2.553.412 1.023.386 2.151.386 3.226V33h-3.868v-8.116c-.026-1.45-.413-3.091-2.321-3.091-1.212 0-2.27 1.13-2.322 3.09V33h-3.868v-8.116c-.026-1.45-.412-3.091-2.321-3.091-1.212 0-2.27 1.13-2.322 3.09V33h-3.869V19.51h3.843v1.584M154.036 33L158.388 33 158.388 28.658 154.036 28.658z" transform="translate(4)"/>
                    <path fill="url(#3ytsst7nue)" d="M90.625 27.535c.085-.45.128-.894.128-1.324 0-.117-.003-.232-.009-.345l.911-.056c.007.132.01.267.01.4 0 .497-.048 1.01-.145 1.522l-.895-.197zm-.01 2.884l-.813-.448c.232-.492.425-.98.572-1.446l.865.317c-.162.512-.371 1.042-.624 1.577zm.332-7.41c.25.54.436 1.095.555 1.647l-.89.224c-.103-.479-.265-.96-.483-1.432l.818-.439zm-8.413 7.41c-.253-.535-.463-1.065-.624-1.577l.865-.317c.147.467.34.954.573 1.446l-.814.448zm-.905-2.687c-.097-.513-.147-1.025-.147-1.521 0-.134.004-.269.011-.401l.913.056c-.008.113-.01.228-.01.345 0 .43.043.875.128 1.324l-.895.197zm.573-4.723l.818.44c-.219.472-.38.952-.483 1.43l-.89-.223c.119-.552.306-1.107.555-1.647zm4.373-3.904c-4.086 0-6.527 2.906-6.527 7.157 0 3.31 1.488 5.798 4.076 6.738.97-.69 1.365-1.555 1.002-2.724-1.012-.776-1.217-2.438-1.217-4.014 0-2.153.375-4.467 2.666-4.467 2.293 0 2.667 2.314 2.667 4.467 0 1.576-.205 3.238-1.217 4.014-.363 1.17.032 2.035 1.001 2.724 2.591-.94 4.079-3.428 4.079-6.738 0-4.251-2.442-7.157-6.53-7.157z" transform="translate(4)"/>
                    <path fill="#FFF" d="M19.35 27.92h-.05l-3.77-13.54c4.413 0 7.026 1.925 7.026 2.66l-3.205 10.88zm8.455-25.68s-.005-.443-.033-.542c-.028-.098-.118-.376-.115-.65 0 0-.063-.357-.164-.205-.101.151-.057.167-.168.333-.113.167-.208.229-.208.229s-.168-.477-.235-.638c-.069-.163-.11-.7-.11-.7s.02-.158-.096.01c-.117.169-.247.458-.286.606-.04.148-.19.765-.04 1.242l-.77.237c-.246.078-.46.156-.573.114-.111-.041-.215.047-.33.093-.116.046-.144.114-.266.306-.125.192-.605.608-1.095.797l-1.687.765c-.202.08-.387.153-.44.181l-.186.043s-.345.296-.355.409c-.008.113.014.258-.04.39-.056.132-.15.413-.115.508.036.096.098.367.213.474l.116.107s.104.188.28.258c.176.071.28-.016.28-.016s.055.11.289.113c.235.004.444-.17.63-.212.186-.044.518.018.753.02.236.004 1.156.006 1.226-.042 0 0 .387.272.849.288.25.008.24 1.387.048 1.967-.384 1.458-.847 1.46-1.836 2.167-.76.545-3.574 1.257-5.567.101-1.943-1.125-4.338-1.55-6.432-.192-1.143.742-2.016 1.707-2.016 1.707s-1.315-.739-3.811 0c-1.62.48-2.44 2.047-2.592 4.567-.158 2.602-1.628 4.676-2.085 5.306 0 0 4.703-1.4 5.722-3.563 1.01-2.143-.853-3.864.619-4.776 1.184-.733 2.01-.465 2.01-.465s-.028.315.003.802h-.003V33h3.62V17.061l.05-.051L17.627 33h3.221l5.043-15.99.05.051V33h3.621V5.925c0-3.026-1.757-3.685-1.757-3.685z" transform="translate(4)"/>
                    <path fill="url(#y8qru5ahnf)" d="M71.791 14.034c-5.71 0-11.687 1.541-13.377 3.172v-.052H71.79v-3.12zm-13.305 6.86L58.487 33h-3.682V7.9c0-5.423 3.489-6.191 3.489-6.191s.58-.794.674-1.052c0 0 .181-.311.226-.134.043.18-.004.178.045.374.05.195.12.29.12.29s.325-.387.443-.514c.122-.128.346-.615.346-.615s.035-.156.087.044c.053.2.078.517.064.67-.013.152-.083.784-.39 1.177 0 0 .446.34.653.502.209.162.387.31.508.312.121.001.189.122.283.207.095.085.097.157.148.382.052.226.366.787.768 1.142l1.346 1.326c.164.148.316.283.357.329l.162.107s.227.399.198.51c-.03.11-.102.236-.095.381.007.144.002.44-.067.517-.066.076-.219.307-.366.367l-.146.057s-.164.14-.356.143c-.193.002-.263-.117-.263-.117s-.088.084-.313.003c-.225-.083-.365-.321-.528-.428-.162-.108-.5-.17-.725-.251-.225-.084-1.103-.415-1.154-.483 0 0-.462.116-.908-.037-.241-.082-.226.204-.068.893.158.689.784 2.376 1.79 3.085.774.543 3.635 1.256 5.664.1 1.976-1.125 4.221-1.005 6.409.255l2.185 1.26s2.227-1.93 4.293-1.392c1.503.392 2.56 2.38 3.398 3.117 1.443 1.267 2.49-.655 5.67 1.158 0 0-1.74.224-3.334 1.227-1.044.657-2.645 2.014-4.498 1.551-3.184-.795-1.362-3.91-2.86-4.821-1.204-.733-2.529.23-2.529.23V33h-3.683V20.894H58.487z" transform="translate(4)"/>
                </g>
            </g>
        </g>
    </g>
</svg>
